<svg width="303" height="182" viewBox="0 0 303 182" fill="none" xmlns="http://www.w3.org/2000/svg">
<g clip-path="url(#clip0_27_787)">
<path d="M77.2766 86.943C87.4241 70.7981 97.6737 54.781 93.43 21.3037C92.8596 27.3564 92.0168 29.8763 90.6718 25.7858C88.7691 37.1293 86.0322 37.8955 83.0101 35.0139L77.2766 86.943Z" fill="#FFE100"/>
<path d="M77.2765 86.9431C84.0613 64.8094 90.395 42.5182 77.8596 12.6973C79.094 19.1842 78.2129 21.1081 75.7569 19.6311C75.7995 29.3316 74.663 31.8472 70.1341 30.1105L77.2765 86.9431Z" fill="#A6EA14"/>
<path d="M77.2258 89.4289C83.1849 54.3001 74.9528 24.7644 54.5983 0.00012207C56.8159 4.39707 58.8548 8.67058 59.0506 11.6459L55.1559 11.4118C56.2328 13.2718 57.2841 17.8178 58.3823 23.3725L54.9771 23.9727C56.9947 27.1693 56.4669 29.1656 54.6068 30.5276C55.2879 38.4575 53.3299 42.3394 49.9247 44.0207L77.2258 89.4289Z" fill="#00D6D6"/>
<path d="M77.2767 86.9431C56.3007 42.1138 21.2826 0.00012207 13.8465 0.00012207C2.45619 3.9544 5.95928 19.3799 5.95928 19.3799C-1.41295 30.7575 11.5693 41.3859 16.0897 63.5154C14.8128 63.9879 13.1102 63.6814 9.81566 56.9732L10.6925 62.1831C8.6281 62.2385 4.59295 58.8886 0.0214844 54.6236C14.4723 71.4027 22.3808 78.4259 24.9815 88.9607C27.595 95.4476 45.6468 110.524 45.6468 110.524C33.2434 130.598 42.1437 138.83 46.498 149.582L53.8405 181.986C55.5431 176.474 57.7011 174.12 60.6509 177.683C65.665 175.269 63.2984 161.874 69.1638 167.936C69.0234 159.848 70.4876 151.808 74.9867 143.886C69.1723 137.076 62.247 129.84 72.8372 129.453C96.5543 117.824 99.138 103.692 119.178 97.1842L157.563 103.939L121.357 92.119C106.472 71.0111 91.8254 74.0119 77.2767 86.9431Z" fill="#00B9D6"/>
</g>
<path d="M94.0736 168.664V163.239L112.427 141.537L113.986 144.538H94.4776V137.612H121.258V143.038L102.904 164.739L101.288 161.738H121.778V168.664H94.0736ZM140.62 169.126C138.042 169.126 135.734 168.625 133.694 167.625C131.693 166.625 130.135 165.105 129.019 163.065C127.903 160.988 127.345 158.352 127.345 155.158V137.612H136.349V153.831C136.349 156.409 136.888 158.313 137.965 159.545C139.081 160.738 140.64 161.334 142.64 161.334C144.026 161.334 145.257 161.045 146.334 160.468C147.412 159.853 148.258 158.929 148.874 157.698C149.489 156.428 149.797 154.85 149.797 152.965V137.612H158.801V168.664H150.259V160.122L151.817 162.604C150.778 164.758 149.239 166.394 147.2 167.51C145.199 168.587 143.006 169.126 140.62 169.126ZM185.987 137.151C188.45 137.151 190.643 137.651 192.567 138.651C194.529 139.613 196.068 141.114 197.184 143.153C198.3 145.154 198.858 147.732 198.858 150.887V168.664H189.854V152.272C189.854 149.771 189.296 147.924 188.18 146.732C187.103 145.539 185.564 144.942 183.563 144.942C182.139 144.942 180.85 145.25 179.696 145.866C178.58 146.443 177.695 147.347 177.041 148.579C176.425 149.81 176.117 151.387 176.117 153.311V168.664H167.114V137.612H175.713V146.212L174.097 143.615C175.213 141.537 176.81 139.94 178.888 138.824C180.966 137.709 183.332 137.151 185.987 137.151ZM220.092 169.126C217.514 169.126 215.205 168.625 213.166 167.625C211.165 166.625 209.607 165.105 208.491 163.065C207.375 160.988 206.817 158.352 206.817 155.158V137.612H215.821V153.831C215.821 156.409 216.36 158.313 217.437 159.545C218.553 160.738 220.111 161.334 222.112 161.334C223.497 161.334 224.729 161.045 225.806 160.468C226.883 159.853 227.73 158.929 228.346 157.698C228.961 156.428 229.269 154.85 229.269 152.965V137.612H238.273V168.664H229.731V160.122L231.289 162.604C230.25 164.758 228.711 166.394 226.672 167.51C224.671 168.587 222.478 169.126 220.092 169.126ZM265.459 137.151C267.921 137.151 270.115 137.651 272.039 138.651C274.001 139.613 275.54 141.114 276.656 143.153C277.772 145.154 278.33 147.732 278.33 150.887V168.664H269.326V152.272C269.326 149.771 268.768 147.924 267.652 146.732C266.575 145.539 265.036 144.942 263.035 144.942C261.611 144.942 260.322 145.25 259.168 145.866C258.052 146.443 257.167 147.347 256.513 148.579C255.897 149.81 255.589 151.387 255.589 153.311V168.664H246.585V137.612H255.185V146.212L253.569 143.615C254.685 141.537 256.282 139.94 258.36 138.824C260.437 137.709 262.804 137.151 265.459 137.151Z" fill="#00B9D6"/>
<path d="M287.635 127.746C284.759 127.746 282.427 130.078 282.427 132.954C282.427 135.831 284.759 138.163 287.635 138.163C290.512 138.163 292.843 135.831 292.843 132.954C292.843 130.078 290.512 127.746 287.635 127.746ZM287.635 137.155C285.314 137.155 283.435 135.276 283.435 132.954C283.435 130.633 285.314 128.754 287.635 128.754C289.956 128.754 291.835 130.633 291.835 132.954C291.835 135.276 289.957 137.155 287.635 137.155ZM289.955 135.437C288.841 133.415 288.899 133.516 288.836 133.419C289.345 133.128 289.665 132.546 289.665 131.882C289.665 130.78 289.03 130.092 287.533 130.092H285.881C285.742 130.092 285.629 130.205 285.629 130.344V135.559C285.629 135.698 285.742 135.811 285.881 135.811H286.691C286.83 135.811 286.943 135.698 286.943 135.559V133.802H287.614L288.612 135.677C288.634 135.717 288.666 135.751 288.705 135.775C288.744 135.798 288.789 135.811 288.835 135.811H289.734C289.926 135.811 290.047 135.605 289.955 135.437ZM287.655 132.616H286.943V131.27H287.518C288.199 131.27 288.336 131.524 288.336 131.935C288.336 132.375 288.094 132.616 287.655 132.616Z" fill="#00B9D6"/>
<defs>
<clipPath id="clip0_27_787">
<rect width="157.567" height="181.969" fill="white"/>
</clipPath>
</defs>
</svg>
