<svg width="13" height="16" viewBox="0 0 13 16" fill="none" xmlns="http://www.w3.org/2000/svg">
<path d="M11.458 13.6667H1.54134C1.35348 13.6667 1.17331 13.7413 1.04047 13.8742C0.907636 14.007 0.833008 14.1872 0.833008 14.375C0.833008 14.5629 0.907636 14.743 1.04047 14.8759C1.17331 15.0087 1.35348 15.0834 1.54134 15.0834H11.458C11.6459 15.0834 11.826 15.0087 11.9589 14.8759C12.0917 14.743 12.1663 14.5629 12.1663 14.375C12.1663 14.1872 12.0917 14.007 11.9589 13.8742C11.826 13.7413 11.6459 13.6667 11.458 13.6667Z" fill="black"/>
<path d="M1.54139 12.2499H1.60514L4.55889 11.9808C4.88245 11.9485 5.18508 11.806 5.41597 11.577L11.791 5.20202C12.0384 4.94062 12.1721 4.5918 12.1628 4.23199C12.1535 3.87217 12.002 3.53072 11.7414 3.28244L9.80056 1.34161C9.54725 1.10367 9.21532 0.967153 8.86791 0.95801C8.52051 0.948868 8.18186 1.06774 7.91639 1.29202L1.54139 7.66702C1.31243 7.89791 1.16987 8.20054 1.13764 8.52411L0.833055 11.4779C0.823513 11.5816 0.836975 11.6862 0.872482 11.7841C0.907988 11.8821 0.964665 11.971 1.03847 12.0445C1.10466 12.1102 1.18315 12.1621 1.26945 12.1974C1.35576 12.2326 1.44817 12.2505 1.54139 12.2499ZM8.81597 2.33327L10.7497 4.26702L9.33305 5.64827L7.43472 3.74994L8.81597 2.33327Z" fill="black"/>
</svg>
