<svg width="24" height="31" viewBox="0 0 24 31" fill="none" xmlns="http://www.w3.org/2000/svg">
<path d="M9.84375 25.7087C10.7674 25.7087 11.5451 25.3927 12.1771 24.7607C12.809 24.1288 13.125 23.351 13.125 22.4274V16.9587H17.5V14.042H11.6667V19.693C11.3993 19.4986 11.1135 19.3586 10.8092 19.273C10.5049 19.1875 10.1831 19.1452 9.84375 19.1462C8.92014 19.1462 8.14236 19.4621 7.51042 20.0941C6.87847 20.726 6.5625 21.5038 6.5625 22.4274C6.5625 23.351 6.87847 24.1288 7.51042 24.7607C8.14236 25.3927 8.92014 25.7087 9.84375 25.7087ZM2.91667 30.0837C2.11459 30.0837 1.42771 29.7978 0.856044 29.2262C0.284377 28.6545 -0.000969746 27.9681 2.47595e-06 27.167V3.83366C2.47595e-06 3.03158 0.285835 2.3447 0.857502 1.77304C1.42917 1.20137 2.11556 0.916022 2.91667 0.916995H14.5833L23.3333 9.667V27.167C23.3333 27.9691 23.0475 28.656 22.4758 29.2276C21.9042 29.7993 21.2178 30.0846 20.4167 30.0837H2.91667ZM13.125 11.1253H20.4167L13.125 3.83366V11.1253Z" fill="#00B9D6"/>
</svg>
