<svg width="19" height="24" viewBox="0 0 19 24" fill="none" xmlns="http://www.w3.org/2000/svg">
<path d="M9.40945 11.5909C9.6174 11.5909 9.81684 11.6723 9.96388 11.8172C10.1109 11.9622 10.1935 12.1587 10.1935 12.3636V17C10.1935 17.2049 10.1109 17.4015 9.96388 17.5464C9.81684 17.6913 9.6174 17.7727 9.40945 17.7727C9.20149 17.7727 9.00206 17.6913 8.85501 17.5464C8.70797 17.4015 8.62536 17.2049 8.62536 17V12.3636C8.62536 12.1587 8.70797 11.9622 8.85501 11.8172C9.00206 11.6723 9.20149 11.5909 9.40945 11.5909ZM14.114 7.72727V6.18182C14.114 4.95218 13.6183 3.7729 12.7361 2.90341C11.8538 2.03393 10.6572 1.54545 9.40945 1.54545C8.16172 1.54545 6.9651 2.03393 6.08283 2.90341C5.20056 3.7729 4.7049 4.95218 4.7049 6.18182V7.72727H14.114ZM9.40945 0C11.0731 0 12.6686 0.651297 13.8449 1.81061C15.0213 2.96993 15.6822 4.5423 15.6822 6.18182V9.27273H3.13672V6.18182C3.13672 4.5423 3.79759 2.96993 4.97396 1.81061C6.15032 0.651297 7.74582 0 9.40945 0Z" fill="black"/>
<rect x="0.75" y="9.06824" width="17.3182" height="14.1818" rx="5.25" stroke="black" stroke-width="1.5"/>
</svg>
