<svg width="25" height="23" viewBox="0 0 25 23" fill="none" xmlns="http://www.w3.org/2000/svg">
<path d="M3.875 0H11.625C12.6527 0 13.6383 0.368749 14.365 1.02513C15.0917 1.6815 15.5 2.57174 15.5 3.5V8.16667H14.2083V3.5C14.2083 2.88116 13.9362 2.28767 13.4517 1.85008C12.9672 1.4125 12.3101 1.16667 11.625 1.16667H3.875C3.18986 1.16667 2.53278 1.4125 2.04831 1.85008C1.56384 2.28767 1.29167 2.88116 1.29167 3.5V18.6667C1.29167 19.2855 1.56384 19.879 2.04831 20.3166C2.53278 20.7542 3.18986 21 3.875 21H11.625C12.3101 21 12.9672 20.7542 13.4517 20.3166C13.9362 19.879 14.2083 19.2855 14.2083 18.6667V14H15.5V18.6667C15.5 19.5949 15.0917 20.4852 14.365 21.1415C13.6383 21.7979 12.6527 22.1667 11.625 22.1667H3.875C2.84729 22.1667 1.86166 21.7979 1.13496 21.1415C0.408258 20.4852 0 19.5949 0 18.6667V3.5C0 2.57174 0.408258 1.6815 1.13496 1.02513C1.86166 0.368749 2.84729 0 3.875 0ZM7.75 10.5H22.2812L18.0833 6.70833L18.9358 5.83333L24.7483 11.0833L18.9358 16.3333L18.0833 15.4583L22.2812 11.6667H7.75V10.5Z" fill="#F76464"/>
</svg>
