<svg width="8" height="13" viewBox="0 0 8 13" fill="none" xmlns="http://www.w3.org/2000/svg">
<path d="M0.297916 11.7812C0.0993052 11.5826 0 11.3299 0 11.0229C0 10.716 0.0993052 10.4632 0.297916 10.2646L4.52292 6.03958L0.297916 1.81458C0.0993052 1.61597 0 1.36319 0 1.05625C0 0.749305 0.0993052 0.496527 0.297916 0.297916C0.496527 0.0993051 0.749305 0 1.05625 0C1.36319 0 1.61597 0.0993051 1.81458 0.297916L6.79792 5.28125C6.90625 5.38958 6.98317 5.50694 7.02867 5.63333C7.07344 5.75972 7.09583 5.89514 7.09583 6.03958C7.09583 6.18403 7.07344 6.31944 7.02867 6.44583C6.98317 6.57222 6.90625 6.68958 6.79792 6.79792L1.81458 11.7812C1.61597 11.9799 1.36319 12.0792 1.05625 12.0792C0.749305 12.0792 0.496527 11.9799 0.297916 11.7812Z" fill="black"/>
</svg>
