<svg width="36" height="24" viewBox="0 0 36 24" fill="none" xmlns="http://www.w3.org/2000/svg">
<path d="M29.025 9.06C28.5211 6.50658 27.1464 4.20729 25.1356 2.55487C23.1248 0.902449 20.6027 -0.000588364 18 2.87605e-07C13.665 2.87605e-07 9.9 2.46 8.025 6.06C5.82035 6.29825 3.78151 7.34281 2.30023 8.99298C0.818957 10.6432 -0.000257553 12.7825 6.07391e-08 15C6.07391e-08 19.965 4.035 24 9 24H28.5C32.64 24 36 20.64 36 16.5C36 12.54 32.925 9.33 29.025 9.06ZM28.5 21H9C5.685 21 3 18.315 3 15C3 11.925 5.295 9.36 8.34 9.045L9.945 8.88L10.695 7.455C11.3848 6.11217 12.4318 4.98572 13.7207 4.19969C15.0096 3.41366 16.4903 2.99853 18 3C21.93 3 25.32 5.79 26.085 9.645L26.535 11.895L28.83 12.06C29.9576 12.1358 31.0146 12.636 31.7883 13.4598C32.562 14.2836 32.995 15.3699 33 16.5C33 18.975 30.975 21 28.5 21ZM12 13.5H15.825V18H20.175V13.5H24L18 7.5L12 13.5Z" fill="black"/>
</svg>
