<svg width="20" height="16" viewBox="0 0 20 16" fill="none" xmlns="http://www.w3.org/2000/svg">
<path d="M0.244215 8.54825L7.74246 15.7688C7.9017 15.9171 8.11455 16 8.33607 16C8.55758 16 8.77043 15.9171 8.92968 15.7688C9.08613 15.6167 9.17389 15.4113 9.17389 15.1972C9.17389 14.9831 9.08613 14.7777 8.92968 14.6256L2.84777 8.7789H19.1669C19.3878 8.7789 19.5997 8.69438 19.756 8.54392C19.9122 8.39346 20 8.1894 20 7.97662C20 7.76384 19.9122 7.55977 19.756 7.40931C19.5997 7.25886 19.3878 7.17433 19.1669 7.17433H2.84777L8.92968 1.32766C9.06253 1.17178 9.13043 0.973885 9.12016 0.772469C9.10988 0.571053 9.02218 0.380517 8.8741 0.237922C8.72602 0.0953281 8.52816 0.0108709 8.319 0.000978669C8.10984 -0.0089136 7.90433 0.0564663 7.74246 0.184401L0.244215 7.40499C0.0877666 7.5571 0 7.76253 0 7.97662C0 8.19071 0.0877666 8.39614 0.244215 8.54825Z" fill="black"/>
</svg>
