<svg width="19" height="23" viewBox="0 0 19 23" fill="none" xmlns="http://www.w3.org/2000/svg">
<path d="M12.7935 19.5166C11.9421 20.7936 10.878 21.4321 9.60097 21.4321C8.32398 21.4321 7.25982 20.7936 6.40849 19.5166M16.0939 17.6011H3.10806C1.94387 17.6011 1.00011 16.6574 1.00011 15.4932C1.00011 15.1111 1.10394 14.7363 1.30051 14.4087C2.55391 12.3197 3.216 9.9293 3.216 7.49313V6.1082C3.216 3.28714 5.50292 1.00023 8.32398 1.00023H10.878C13.699 1.00023 15.9859 3.28714 15.9859 6.1082V7.49313C15.9859 9.9293 16.648 12.3197 17.9014 14.4087C18.5004 15.4069 18.1767 16.7018 17.1784 17.3007C16.8508 17.4973 16.4759 17.6011 16.0939 17.6011Z" stroke="#2A2E3B" stroke-width="1.52699" stroke-linecap="round" stroke-linejoin="round"/>
</svg>
