<svg width="23" height="18" viewBox="0 0 23 18" fill="none" xmlns="http://www.w3.org/2000/svg">
<path d="M0.0552091 9.34347C-0.018403 9.12223 -0.018403 8.8831 0.0552091 8.66187C1.53468 4.21067 5.73414 1 10.6835 1C15.6307 1 19.828 4.20747 21.3107 8.65653C21.3853 8.87733 21.3853 9.11627 21.3107 9.33813C19.8323 13.7893 15.6328 17 10.6835 17C5.73628 17 1.53788 13.7925 0.0552091 9.34347Z" stroke="black" stroke-width="1.5" stroke-linecap="round" stroke-linejoin="round"/>
<path d="M13.8834 9.00005C13.8834 9.84874 13.5463 10.6627 12.9461 11.2628C12.346 11.8629 11.5321 12.2 10.6834 12.2C9.83471 12.2 9.02077 11.8629 8.42066 11.2628C7.82054 10.6627 7.4834 9.84874 7.4834 9.00005C7.4834 8.15136 7.82054 7.33742 8.42066 6.73731C9.02077 6.13719 9.83471 5.80005 10.6834 5.80005C11.5321 5.80005 12.346 6.13719 12.9461 6.73731C13.5463 7.33742 13.8834 8.15136 13.8834 9.00005Z" stroke="black" stroke-width="1.5" stroke-linecap="round" stroke-linejoin="round"/>
</svg>
