<svg width="24" height="24" viewBox="0 0 24 24" fill="none" xmlns="http://www.w3.org/2000/svg">
<path d="M10.84 10H12.548V17H10.84V10ZM11.708 9.097C11.456 9.097 11.2437 9.01533 11.071 8.852C10.8983 8.684 10.812 8.474 10.812 8.222C10.812 7.97467 10.8983 7.767 11.071 7.599C11.2437 7.431 11.4537 7.347 11.701 7.347C11.9483 7.347 12.156 7.431 12.324 7.599C12.4967 7.767 12.583 7.97467 12.583 8.222C12.583 8.474 12.499 8.684 12.331 8.852C12.163 9.01533 11.9553 9.097 11.708 9.097Z" fill="black"/>
<rect x="1" y="1" width="22" height="22" rx="9" stroke="black" stroke-width="2"/>
</svg>
