<svg width="22" height="22" viewBox="0 0 22 22" fill="none" xmlns="http://www.w3.org/2000/svg">
<path d="M11 0C8.82441 0 6.69767 0.645139 4.88873 1.85383C3.07979 3.06253 1.66989 4.78049 0.83733 6.79048C0.00476613 8.80047 -0.213071 11.0122 0.211367 13.146C0.635804 15.2798 1.68345 17.2398 3.22183 18.7782C4.76021 20.3165 6.72022 21.3642 8.85401 21.7886C10.9878 22.2131 13.1995 21.9952 15.2095 21.1627C17.2195 20.3301 18.9375 18.9202 20.1462 17.1113C21.3549 15.3023 22 13.1756 22 11C21.9944 8.08433 20.8337 5.28969 18.772 3.228C16.7103 1.16631 13.9157 0.00559093 11 0ZM11 20.3077C9.15911 20.3077 7.35957 19.7618 5.82893 18.7391C4.29829 17.7163 3.10529 16.2627 2.40082 14.5619C1.69634 12.8611 1.51202 10.9897 1.87116 9.18416C2.2303 7.37864 3.11677 5.72017 4.41847 4.41847C5.72018 3.11676 7.37865 2.23029 9.18416 1.87115C10.9897 1.51201 12.8611 1.69634 14.5619 2.40081C16.2627 3.10529 17.7163 4.29828 18.7391 5.82892C19.7618 7.35956 20.3077 9.15911 20.3077 11C20.3049 13.4677 19.3234 15.8335 17.5784 17.5784C15.8335 19.3234 13.4677 20.3049 11 20.3077ZM12.2692 11C12.2692 11.251 12.1948 11.4964 12.0553 11.7051C11.9159 11.9139 11.7176 12.0765 11.4857 12.1726C11.2538 12.2687 10.9986 12.2938 10.7524 12.2448C10.5062 12.1959 10.28 12.075 10.1025 11.8975C9.92502 11.72 9.80413 11.4938 9.75516 11.2476C9.70619 11.0014 9.73132 10.7462 9.82739 10.5143C9.92345 10.2824 10.0861 10.0841 10.2949 9.94467C10.5036 9.80521 10.749 9.73077 11 9.73077C11.3366 9.73077 11.6595 9.86449 11.8975 10.1025C12.1355 10.3405 12.2692 10.6634 12.2692 11ZM17.3462 11C17.3462 11.251 17.2717 11.4964 17.1323 11.7051C16.9928 11.9139 16.7946 12.0765 16.5626 12.1726C16.3307 12.2687 16.0755 12.2938 15.8293 12.2448C15.5831 12.1959 15.3569 12.075 15.1794 11.8975C15.0019 11.72 14.8811 11.4938 14.8321 11.2476C14.7831 11.0014 14.8082 10.7462 14.9043 10.5143C15.0004 10.2824 15.1631 10.0841 15.3718 9.94467C15.5805 9.80521 15.8259 9.73077 16.0769 9.73077C16.4135 9.73077 16.7364 9.86449 16.9744 10.1025C17.2124 10.3405 17.3462 10.6634 17.3462 11ZM7.19231 11C7.19231 11.251 7.11787 11.4964 6.97841 11.7051C6.83894 11.9139 6.64072 12.0765 6.40879 12.1726C6.17687 12.2687 5.92167 12.2938 5.67547 12.2448C5.42926 12.1959 5.2031 12.075 5.0256 11.8975C4.84809 11.72 4.72721 11.4938 4.67824 11.2476C4.62926 11.0014 4.6544 10.7462 4.75046 10.5143C4.84653 10.2824 5.00921 10.0841 5.21793 9.94467C5.42666 9.80521 5.67205 9.73077 5.92308 9.73077C6.2597 9.73077 6.58254 9.86449 6.82056 10.1025C7.05859 10.3405 7.19231 10.6634 7.19231 11Z" fill="black"/>
</svg>
