<svg width="18" height="16" viewBox="0 0 18 16" fill="none" xmlns="http://www.w3.org/2000/svg">
<path d="M17.6437 8.39375L10.8937 15.1437C10.842 15.1955 10.7807 15.2365 10.7131 15.2645C10.6455 15.2924 10.5731 15.3068 10.5 15.3068C10.4269 15.3068 10.3545 15.2924 10.2869 15.2645C10.2193 15.2365 10.158 15.1955 10.1063 15.1437C10.0545 15.092 10.0135 15.0307 9.98554 14.9631C9.95756 14.8955 9.94315 14.8231 9.94315 14.75C9.94315 14.6769 9.95756 14.6045 9.98554 14.5369C10.0135 14.4693 10.0545 14.408 10.1063 14.3563L15.8906 8.5625H0.75C0.600816 8.5625 0.457742 8.50324 0.352252 8.39775C0.246763 8.29226 0.1875 8.14918 0.1875 8C0.1875 7.85082 0.246763 7.70774 0.352252 7.60225C0.457742 7.49676 0.600816 7.4375 0.75 7.4375H15.8906L10.1063 1.64375C10.0018 1.53932 9.94315 1.39768 9.94315 1.25C9.94315 1.10232 10.0018 0.960679 10.1063 0.85625C10.2107 0.751821 10.3523 0.693153 10.5 0.693153C10.6477 0.693153 10.7893 0.751821 10.8937 0.85625L17.6437 7.60625C17.6971 7.65704 17.7395 7.71812 17.7685 7.78581C17.7975 7.85349 17.8125 7.92636 17.8125 8C17.8125 8.07364 17.7975 8.14651 17.7685 8.21419C17.7395 8.28188 17.6971 8.34296 17.6437 8.39375Z" fill="black"/>
</svg>
