<svg width="57" height="57" viewBox="0 0 57 57" fill="none" xmlns="http://www.w3.org/2000/svg">
<circle cx="28.5" cy="28.5" r="28.5" fill="#9E9E9E"/>
<path d="M18.8667 38.9002C18.4222 39.078 18 39.0389 17.6 38.7829C17.2 38.5278 17 38.1558 17 37.6669V32.7002C17 32.3891 17.0889 32.1113 17.2667 31.8669C17.4444 31.6225 17.6889 31.4669 18 31.4002L27.6667 29.0002L18 26.6002C17.6889 26.5336 17.4444 26.378 17.2667 26.1336C17.0889 25.8891 17 25.6113 17 25.3002V20.3336C17 19.8447 17.2 19.4722 17.6 19.2162C18 18.9611 18.4222 18.9225 18.8667 19.1002L39.4 27.7669C39.9556 28.0113 40.2333 28.4225 40.2333 29.0002C40.2333 29.578 39.9556 29.9891 39.4 30.2336L18.8667 38.9002Z" fill="white"/>
</svg>
